<?xml version="1.0" encoding="UTF-8" standalone="no"?>
<svg
   xmlns:dc="http://purl.org/dc/elements/1.1/"
   xmlns:cc="http://creativecommons.org/ns#"
   xmlns:rdf="http://www.w3.org/1999/02/22-rdf-syntax-ns#"
   xmlns:svg="http://www.w3.org/2000/svg"
   xmlns="http://www.w3.org/2000/svg"
   id="svg8"
   version="1.1"
   viewBox="0 0 45.535194 24.077091"
   height="24.077091mm"
   width="45.535194mm">
  <defs
     id="defs2" />
  <metadata
     id="metadata5">
    <rdf:RDF>
      <cc:Work
         rdf:about="">
        <dc:format>image/svg+xml</dc:format>
        <dc:type
           rdf:resource="http://purl.org/dc/dcmitype/StillImage" />
        <dc:title></dc:title>
      </cc:Work>
    </rdf:RDF>
  </metadata>
  <g
     transform="translate(-2.5054993,-2.972629)"
     id="layer1">
    <path
       id="path9765"
       d="m 45.963153,26.831689 c -0.07872,-0.119918 0.12234,-0.209214 0.446847,-0.198437 0.324507,0.01078 0.636139,-0.104287 0.692518,-0.255696 0.05641,-0.15141 -0.24703,-0.270473 -0.674256,-0.264584 -0.702503,0.0097 -0.776762,-0.07782 -0.776762,-0.915334 0,-0.905205 0.02688,-0.92717 1.194597,-0.976194 1.18834,-0.04989 1.194597,-0.0453 1.194597,0.87729 0,1.262431 -0.444043,1.950987 -1.258168,1.950987 -0.37192,0 -0.740642,-0.09811 -0.819373,-0.218032 z m 1.093758,-1.634051 c 0,-0.719694 -0.556918,-1.003835 -0.799794,-0.408057 -0.220418,0.540675 0.08424,1.249948 0.483074,1.124795 0.174194,-0.05466 0.31672,-0.37719 0.31672,-0.716738 z m -34.713558,1.058333 c -1.113305,-1.047954 -0.303876,-2.910416 1.264862,-2.910416 1.327125,0 2.318005,1.548671 1.48973,2.328333 -0.480419,0.452218 -1.776194,0.392729 -2.211983,-0.101553 -0.497937,-0.564753 -0.01477,-1.274564 0.94113,-1.382616 0.6055,-0.06844 0.743818,0.04009 0.843053,0.661458 l 0.118707,0.743336 0.04207,-0.695207 c 0.05758,-0.950587 -0.627831,-1.449775 -1.560143,-1.136247 -1.594659,0.536274 -1.259964,2.627412 0.419768,2.622647 0.49578,-0.0014 0.901408,0.08789 0.901408,0.198437 0,0.426117 -1.712898,0.176134 -2.248655,-0.328172 z m 1.574049,-1.481666 c -0.136055,-0.333748 -0.271399,-0.379528 -0.496268,-0.167861 -0.170051,0.160073 -0.224996,0.497548 -0.122107,0.749944 0.136056,0.333747 0.2714,0.379528 0.496268,0.167861 0.170051,-0.160073 0.225007,-0.497548 0.122107,-0.749944 z M 2.5054993,25.197638 c 0,-0.764352 0.117114,-1.058333 0.4216169,-1.058333 0.3045134,0 0.4216275,0.293981 0.4216275,1.058333 0,0.764352 -0.1171141,1.058333 -0.4216275,1.058333 -0.3045029,0 -0.4216169,-0.293981 -0.4216169,-1.058333 z m 1.4054108,0.02646 c 0,-1.015954 0.016254,-1.031879 1.0540475,-1.032133 1.1728719,-2.91e-4 1.4650408,0.265076 1.4713724,1.336404 0.00637,1.066677 -0.7805441,0.9499 -0.8914009,-0.132292 -0.048443,-0.472942 -0.2145639,-0.859895 -0.3691578,-0.859895 -0.1545939,0 -0.3207144,0.386953 -0.3691577,0.859895 -0.1320827,1.289496 -0.8957035,1.142877 -0.8957035,-0.171979 z m 3.3729774,0.127882 c 0,-0.497196 -0.1581103,-0.964046 -0.3513527,-1.037445 -0.2810885,-0.106762 -0.2810885,-0.13763 0,-0.15434 0.1932424,-0.01149 0.3513527,-0.199482 0.3513527,-0.417763 0,-0.264007 0.2587791,-0.3866 0.7729696,-0.366184 0.4755633,0.01888 0.583711,0.07725 0.2810779,0.151693 -0.2705393,0.06655 -0.4918916,0.222602 -0.4918916,0.346782 0,0.124181 0.2213523,0.280233 0.4918916,0.346783 0.4684774,0.115238 0.4684774,0.122461 0,0.151692 -0.3685628,0.023 -0.4918916,0.26287 -0.4918916,0.956734 0,0.509323 -0.126484,0.926041 -0.281078,0.926041 -0.1545939,0 -0.2810779,-0.406797 -0.2810779,-0.903993 z m 2.0378414,0.728765 c -0.5112371,-0.19418 -0.4382002,-1.58887 0.093275,-1.780839 0.8297101,-0.299703 1.5022011,-0.162312 1.8040381,0.368567 0.604204,1.0627 -0.551926,1.923277 -1.8973022,1.412272 z M 10.516315,25.19764 c 0,-0.339549 -0.142515,-0.662081 -0.31672,-0.716738 -0.3988608,-0.125153 -0.7034805,0.58412 -0.483063,1.124795 0.2428756,0.595778 0.799783,0.311637 0.799783,-0.408057 z m 5.583908,0.664318 c -0.08095,-0.198688 -0.105598,-0.6378 -0.05482,-0.975805 0.07171,-0.476152 0.266577,-0.612206 0.865469,-0.604125 0.559393,0.0075 0.772969,-0.120389 0.772969,-0.46302 0,-0.260399 0.189737,-0.473451 0.421628,-0.473451 0.322552,0 0.421617,0.334613 0.421617,1.424018 v 1.424018 l -1.139822,0.01481 c -0.715868,0.0093 -1.194597,-0.119561 -1.287097,-0.346443 z m 1.443135,-0.664318 c 0,-0.339549 -0.142525,-0.662081 -0.316719,-0.716738 -0.398872,-0.125153 -0.703492,0.58412 -0.483075,1.124795 0.242876,0.595778 0.799794,0.311637 0.799794,-0.408057 z m 1.897303,0.883105 c -0.511237,-0.19418 -0.4382,-1.58887 0.09328,-1.780839 0.82971,-0.299703 1.502202,-0.162312 1.804038,0.368567 0.604204,1.0627 -0.551925,1.923277 -1.897302,1.412272 z m 1.194586,-0.883105 c 0,-0.339549 -0.142515,-0.662081 -0.31672,-0.716738 -0.398861,-0.125153 -0.70348,0.58412 -0.483063,1.124795 0.242876,0.595778 0.799783,0.311637 0.799783,-0.408057 z m 1.264872,-0.396875 c 0,-1.11713 0.09795,-1.455208 0.421617,-1.455208 0.323678,0 0.421628,0.338078 0.421628,1.455208 0,1.11713 -0.09795,1.455208 -0.421628,1.455208 -0.323668,0 -0.421617,-0.338078 -0.421617,-1.455208 z m 1.405411,0.422183 v -1.033026 l 1.756753,0.04084 1.756763,0.04084 0.08722,0.992188 c 0.04802,0.545703 -0.03888,0.992187 -0.193009,0.992187 -0.154126,0 -0.319875,-0.386953 -0.368318,-0.859896 -0.04844,-0.472942 -0.214564,-0.859895 -0.369158,-0.859895 -0.154594,0 -0.320715,0.386953 -0.369158,0.859895 -0.12591,1.229205 -0.895703,1.158937 -0.895703,-0.08176 0,-0.560397 -0.113811,-0.87545 -0.281089,-0.778135 -0.154594,0.08994 -0.281078,0.513682 -0.281078,0.941656 0,0.515287 -0.142419,0.778135 -0.421627,0.778135 -0.302782,0 -0.421617,-0.291169 -0.421617,-1.033025 z m 4.604109,0.64882 c -0.217953,-0.534636 0.106235,-0.938711 0.753018,-0.938711 0.830847,0 0.650565,-0.479049 -0.227397,-0.604242 -0.640887,-0.09139 -0.597999,-0.116996 0.251014,-0.149865 1.08885,-0.04216 1.365211,0.248772 1.365211,1.437204 0,0.555916 -0.130171,0.639819 -0.992612,0.639819 -0.608474,0 -1.053218,-0.148685 -1.149234,-0.384205 z m 1.228284,-0.563921 c -0.267851,-0.252137 -0.804872,0.156263 -0.605245,0.460296 0.118644,0.180711 0.275862,0.176146 0.477731,-0.01387 0.165493,-0.155775 0.222871,-0.356666 0.127514,-0.446423 z m 1.578532,0.554111 c -0.08095,-0.198688 -0.105598,-0.6378 -0.05471,-0.975805 0.07171,-0.476152 0.266577,-0.612206 0.865469,-0.604125 0.559394,0.0075 0.77298,-0.120389 0.77298,-0.46302 0,-0.260399 0.189726,-0.473451 0.421617,-0.473451 0.322552,0 0.421627,0.334613 0.421627,1.424018 v 1.424018 l -1.139832,0.01481 c -0.715858,0.0093 -1.194597,-0.119561 -1.287096,-0.346443 z M 32.15959,25.19764 c 0,-0.719694 -0.556918,-1.003835 -0.799794,-0.408057 -0.220406,0.540675 0.08424,1.249948 0.483075,1.124795 0.174194,-0.05466 0.316719,-0.37719 0.316719,-0.716738 z m 1.897303,0.883105 c -0.193242,-0.0734 -0.351353,-0.478449 -0.351353,-0.900113 0,-0.596928 0.155433,-0.803382 0.702079,-0.932527 0.888798,-0.209982 1.546576,0.02154 1.546576,0.544356 0,0.272858 -0.272504,0.405179 -0.834426,0.405179 -0.647123,0 -0.795938,0.0944 -0.662974,0.42057 0.111133,0.272601 0.401709,0.379136 0.825918,0.302804 0.359957,-0.06477 0.587588,-0.0159 0.50584,0.108597 -0.158854,0.241943 -1.152082,0.271272 -1.73166,0.05113 z m 1.194597,-1.412272 c -0.09551,-0.145521 -0.292743,-0.264583 -0.438211,-0.264583 -0.145468,0 -0.264494,0.119062 -0.264494,0.264583 0,0.145521 0.197194,0.264584 0.43821,0.264584 0.241017,0 0.360043,-0.119063 0.264495,-0.264584 z m 1.431566,1.362755 c -0.09582,-0.146012 0.07309,-0.195865 0.395069,-0.116596 0.30941,0.07616 0.562559,0.01941 0.562559,-0.126108 0,-0.145521 -0.263974,-0.329562 -0.586611,-0.408981 -0.794716,-0.195625 -0.594568,-1.080773 0.27055,-1.196492 0.36409,-0.0487 0.805499,0.04902 0.980915,0.217161 0.240464,0.230495 0.128757,0.261497 -0.454051,0.126009 -0.97624,-0.226954 -1.011946,0.06982 -0.04982,0.414155 0.944487,0.338016 0.810949,1.153358 -0.207117,1.264615 -0.409219,0.04472 -0.819384,-0.03347 -0.911501,-0.173763 z m 2.363028,-0.17213 c 0,-0.218281 0.189737,-0.396875 0.421628,-0.396875 0.231891,0 0.421617,0.178594 0.421617,0.396875 0,0.218282 -0.189726,0.396875 -0.421617,0.396875 -0.231891,0 -0.421628,-0.178593 -0.421628,-0.396875 z m 2.037842,0.221647 c -0.511237,-0.19418 -0.438201,-1.58887 0.09327,-1.780839 0.829721,-0.299703 1.502213,-0.162312 1.804039,0.368567 0.604204,1.0627 -0.551926,1.923277 -1.897292,1.412272 z m 1.194597,-0.883105 c 0,-0.719694 -0.556919,-1.003835 -0.799794,-0.408057 -0.220407,0.540675 0.08424,1.249948 0.483074,1.124795 0.174194,-0.05466 0.31672,-0.37719 0.31672,-0.716738 z m 1.264872,0.01769 c 0,-0.992259 0.04048,-1.039553 0.870993,-1.017326 0.666479,0.01784 0.76548,0.0789 0.421627,0.260034 -0.253414,0.133494 -0.449376,0.577131 -0.449376,1.017327 0,0.517481 -0.142122,0.780603 -0.421628,0.780603 -0.303313,0 -0.421616,-0.292015 -0.421616,-1.040637 z M 2.5054993,23.610138 c 0,-0.145521 0.189726,-0.264583 0.4216169,-0.264583 0.2319015,0 0.4216275,0.119062 0.4216275,0.264583 0,0.145521 -0.189726,0.264583 -0.4216275,0.264583 -0.2318909,0 -0.4216169,-0.119062 -0.4216169,-0.264583 z M 30.801029,17.083749 c -0.3876,-0.364853 -0.162115,-0.541166 0.585592,-0.457882 0.473396,0.05273 0.555102,0.02747 0.210803,-0.06516 -0.864736,-0.232675 -1.264861,-0.632659 -1.264861,-1.264423 0,-0.813592 0.525908,-1.211145 1.602159,-1.211145 0.920552,0 0.927574,0.0096 0.927574,1.270001 0,0.6985 -0.151789,1.412875 -0.337298,1.5875 -0.36358,0.34224 -1.418563,0.428593 -1.723969,0.141111 z m 1.218022,-1.807986 c 0,-0.411575 -0.159278,-0.661459 -0.421627,-0.661459 -0.262338,0 -0.421617,0.249884 -0.421617,0.661459 0,0.411574 0.159279,0.661458 0.421617,0.661458 0.262349,0 0.421627,-0.249884 0.421627,-0.661458 z M 4.5198414,16.122561 C 4.144692,15.697067 4.2389016,13.935142 4.6578945,13.540746 c 0.1698705,-0.1599 0.6720989,-0.251654 1.1160677,-0.203897 0.7469525,0.08035 0.8107894,0.175603 0.8550259,1.275822 0.02624,0.653946 -0.084032,1.338555 -0.2452234,1.521354 -0.3820867,0.433355 -1.4776828,0.426616 -1.8639233,-0.01146 z m 1.3586353,-0.714507 c 0,-0.293981 -0.1873888,-0.529166 -0.4216275,-0.529166 -0.234228,0 -0.4216168,0.235185 -0.4216168,0.529166 0,0.293982 0.1873888,0.529167 0.4216168,0.529167 0.2342387,0 0.4216275,-0.235185 0.4216275,-0.529167 z m 0,-1.322917 c 0,-0.14552 -0.189726,-0.264583 -0.4216275,-0.264583 -0.2318908,0 -0.4216168,0.119063 -0.4216168,0.264583 0,0.145521 0.189726,0.264584 0.4216168,0.264584 0.2319015,0 0.4216275,-0.119063 0.4216275,-0.264584 z m 1.6864887,1.99268 c 0,-0.231 0.165515,-0.328785 0.4081569,-0.241138 0.2244969,0.08109 0.5710583,0.05267 0.7701437,-0.06315 0.2565056,-0.149223 0.1658017,-0.254178 -0.3112913,-0.360192 -1.4673249,-0.326057 -1.4753775,-1.877851 -0.010836,-2.08093 1.2290279,-0.170418 1.9202063,1.805661 0.9507547,2.718208 -0.5647799,0.531627 -1.8069492,0.550328 -1.8069492,0.0272 z m 1.2648613,-1.728096 c 0,-0.194028 -0.1580997,-0.402387 -0.3513421,-0.463021 -0.2090184,-0.06558 -0.3513527,0.122002 -0.3513527,0.463021 0,0.341018 0.1423343,0.528601 0.3513527,0.463021 0.1932424,-0.06063 0.3513421,-0.268993 0.3513421,-0.463021 z m 1.8270383,1.852083 c 0,-0.145521 0.126484,-0.264583 0.281078,-0.264583 0.154593,0 0.281077,-0.483277 0.281077,-1.073948 0,-0.730809 -0.101454,-1.014923 -0.317548,-0.889213 -0.192541,0.112014 -0.266853,0.04005 -0.188791,-0.182823 0.07086,-0.202157 0.40344,-0.405604 0.739165,-0.452106 0.558045,-0.07729 0.610419,0.03054 0.610419,1.256771 0,1.015895 0.102305,1.341319 0.421627,1.341319 0.231891,0 0.421617,0.119062 0.421617,0.264583 0,0.145521 -0.505946,0.264584 -1.124322,0.264584 -0.618376,0 -1.124322,-0.119063 -1.124322,-0.264584 z m 2.810811,0.101075 c 0,-0.08993 0.382246,-0.573308 0.849427,-1.074174 0.935159,-1.002569 0.861697,-1.537743 -0.177392,-1.292257 -0.373078,0.08814 -0.672035,0.04107 -0.672035,-0.105812 0,-0.338321 1.270874,-0.644458 1.832775,-0.441492 0.803809,0.290347 0.79547,0.967123 -0.02178,1.770122 l -0.791805,0.777955 h 0.755292 c 0.415413,0 0.755292,0.119062 0.755292,0.264583 0,0.145521 -0.569188,0.264584 -1.264861,0.264584 -0.695683,0 -1.264872,-0.07358 -1.264872,-0.163509 z m 3.372977,-0.225062 c 0,-0.231 0.165515,-0.328785 0.408157,-0.241138 0.224497,0.08109 0.571058,0.05267 0.770144,-0.06315 0.256505,-0.149223 0.165801,-0.254178 -0.311292,-0.360192 -1.467325,-0.326057 -1.475377,-1.877851 -0.01084,-2.08093 1.229028,-0.170418 1.920207,1.805661 0.950755,2.718208 -0.56478,0.531627 -1.806949,0.550328 -1.806949,0.0272 z m 1.264861,-1.728096 c 0,-0.194028 -0.158099,-0.402387 -0.351342,-0.463021 -0.209018,-0.06558 -0.351352,0.122002 -0.351352,0.463021 0,0.341018 0.142334,0.528601 0.351352,0.463021 0.193243,-0.06063 0.351342,-0.268993 0.351342,-0.463021 z m 3.232439,0.529167 c 0,-1.411112 0.06247,-1.587501 0.562166,-1.587501 0.487207,0 0.562167,0.176389 0.562167,1.322917 0,1.234723 0.04685,1.322917 0.702694,1.322917 0.386496,0 0.702706,0.119062 0.702706,0.264583 0,0.145521 -0.569189,0.264584 -1.264861,0.264584 h -1.264872 z m 2.912467,1.190625 c -0.249982,-0.613197 0.07915,-1.13774 0.794674,-1.266364 0.578187,-0.103939 0.56462,-0.120744 -0.12335,-0.152813 -1.129135,-0.05263 -0.94692,-0.565199 0.200923,-0.565199 1.071672,0 1.55584,0.529773 1.55584,1.702398 0,0.616487 -0.10411,0.678853 -1.13315,0.678853 -0.747951,0 -1.188149,-0.134914 -1.294937,-0.396875 z m 1.444293,-0.396875 c 0.09551,-0.145521 -0.02348,-0.264584 -0.264483,-0.264584 -0.241017,0 -0.438211,0.119063 -0.438211,0.264584 0,0.14552 0.119015,0.264583 0.264484,0.264583 0.145479,0 0.342673,-0.119063 0.43821,-0.264583 z m 1.54595,-0.380882 v -1.174631 l 1.194597,0.05015 1.194597,0.05015 0.08648,1.124479 c 0.06735,0.876423 -0.01062,1.12448 -0.351353,1.12448 -0.314871,0 -0.437786,-0.266177 -0.437786,-0.948091 0,-1.195468 -0.663525,-1.104369 -0.790774,0.108571 -0.143216,1.364986 -0.895714,1.083453 -0.895714,-0.335112 z m 6.521097,0.857132 c -0.433568,-0.408121 -0.433568,-1.33813 0,-1.746251 0.696023,-0.655167 2.192435,-0.203699 2.192435,0.661459 0,0.205787 -0.338742,0.343958 -0.843244,0.343958 -0.463792,0 -0.843244,0.133946 -0.843244,0.297656 0,0.189619 0.306064,0.240036 0.843244,0.138907 0.877038,-0.165113 1.175751,0.180465 0.398628,0.461171 -0.695376,0.251179 -1.379543,0.189762 -1.747819,-0.1569 z m 1.273063,-1.429853 c -0.09338,-0.08792 -0.335832,-0.09732 -0.538742,-0.02089 -0.224231,0.08446 -0.157622,0.147157 0.169818,0.159853 0.296312,0.01149 0.462326,-0.05105 0.368924,-0.138965 z m 1.481528,0.572721 v -1.174631 l 1.194597,0.05015 1.194597,0.05015 0.08648,1.124479 c 0.06735,0.876423 -0.01062,1.12448 -0.351353,1.12448 -0.314871,0 -0.437786,-0.266177 -0.437786,-0.948091 0,-1.195468 -0.663525,-1.104369 -0.790774,0.108571 -0.143216,1.364986 -0.895714,1.083453 -0.895714,-0.335112 z m 3.193546,0.777757 c -0.249983,-0.613197 0.07915,-1.13774 0.794684,-1.266364 0.578176,-0.103939 0.56461,-0.120744 -0.123361,-0.152813 -1.129124,-0.05263 -0.946919,-0.565199 0.200923,-0.565199 1.071683,0 1.555841,0.529773 1.555841,1.702398 0,0.616487 -0.104111,0.678853 -1.133151,0.678853 -0.74794,0 -1.188148,-0.134914 -1.294936,-0.396875 z M 41.1542,15.672638 c 0.09551,-0.145521 -0.02348,-0.264584 -0.264494,-0.264584 -0.241017,0 -0.438211,0.119063 -0.438211,0.264584 0,0.14552 0.119016,0.264583 0.264495,0.264583 0.145468,0 0.342662,-0.119063 0.43821,-0.264583 z m 1.883248,0.47625 c -0.185519,-0.174625 -0.337298,-0.710407 -0.337298,-1.190625 0,-1.184471 0.774563,-1.195911 0.895704,-0.01323 0.04844,0.472943 0.214564,0.859896 0.369157,0.859896 0.154594,0 0.320715,-0.386953 0.369158,-0.859896 0.142696,-1.393073 0.895714,-1.115031 0.895714,0.33073 0,1.17058 -0.01562,1.190625 -0.927574,1.190625 -0.510164,0 -1.079353,-0.142875 -1.264861,-0.3175 z M 11.968576,12.056665 c -0.387601,-0.364853 -0.162116,-0.541165 0.58558,-0.457882 0.473397,0.05273 0.555102,0.02748 0.210814,-0.06516 -0.864736,-0.232675 -1.264861,-0.632659 -1.264861,-1.264423 0,-0.813593 0.525898,-1.211145 1.602159,-1.211145 0.920541,0 0.927574,0.0096 0.927574,1.27 0,0.6985 -0.151789,1.412875 -0.337298,1.5875 -0.36358,0.342241 -1.418562,0.428593 -1.723968,0.14111 z m 1.218022,-1.807986 c 0,-0.411574 -0.159279,-0.661458 -0.421628,-0.661458 -0.262338,0 -0.421617,0.249884 -0.421617,0.661458 0,0.411574 0.159279,0.661458 0.421617,0.661458 0.262349,0 0.421628,-0.249884 0.421628,-0.661458 z M 2.5054993,9.851804 c 0,-1.411111 0.062467,-1.5875 0.5621664,-1.5875 0.4872067,0 0.5621559,0.176389 0.5621559,1.322917 0,1.234722 0.04685,1.322916 0.7027054,1.322916 0.3864848,0 0.7027054,0.119063 0.7027054,0.264584 0,0.145521 -0.5691886,0.264583 -1.2648719,0.264583 H 2.5054993 Z m 2.9124571,1.190625 C 5.1679843,10.429233 5.4971019,9.90469 6.2126405,9.776066 6.7908167,9.672126 6.7772504,9.655321 6.0892905,9.623252 4.9601557,9.570622 5.1423603,9.058054 6.2902137,9.058054 c 1.0716719,0 1.5558297,0.529772 1.5558297,1.702398 0,0.616486 -0.1041108,0.678852 -1.1331399,0.678852 -0.7479511,0 -1.1881485,-0.134913 -1.2949471,-0.396875 z M 6.86226,10.645554 c 0.095506,-0.145521 -0.023478,-0.264583 -0.2644945,-0.264583 -0.2410165,0 -0.4382109,0.119062 -0.4382109,0.264583 0,0.145521 0.1190263,0.264583 0.2644946,0.264583 0.1454683,0 0.3426626,-0.119062 0.4382108,-0.264583 z M 8.4082098,10.264673 V 9.090041 l 1.1945971,0.05015 1.1945971,0.05015 0.08648,1.124479 c 0.06735,0.876422 -0.01062,1.124479 -0.351352,1.124479 -0.314882,0 -0.437786,-0.266176 -0.437786,-0.94809 0,-1.195468 -0.6635257,-1.10437 -0.7907853,0.10857 -0.1432054,1.364986 -0.8957034,1.083453 -0.8957034,-0.335111 z m 6.5210862,0.857131 c -0.433569,-0.40812 -0.433569,-1.33813 0,-1.74625 0.696023,-0.655168 2.192435,-0.203699 2.192435,0.661458 0,0.205787 -0.338732,0.343959 -0.843244,0.343959 -0.463782,0 -0.843245,0.133945 -0.843245,0.297656 0,0.189618 0.306075,0.240036 0.843245,0.138906 0.877048,-0.165113 1.175761,0.180465 0.398638,0.461172 -0.695375,0.251179 -1.379543,0.189761 -1.747829,-0.156901 z m 1.273073,-1.429853 c -0.09338,-0.08792 -0.335842,-0.09732 -0.538742,-0.02089 -0.224231,0.08446 -0.157621,0.147156 0.169818,0.159852 0.296301,0.01149 0.462316,-0.05104 0.368924,-0.138964 z m 3.368781,1.583556 c -0.436745,-0.411111 -0.159258,-0.60891 0.64248,-0.457974 1.050054,0.197684 1.151785,-0.339238 0.133337,-0.703724 -0.872906,-0.312398 -1.158031,-0.92802 -0.680619,-1.46951 0.418483,-0.474646 1.991236,-0.416033 2.164442,0.08066 0.08297,0.237832 -0.1346,0.281471 -0.788969,0.158278 -0.695099,-0.13086 -0.873787,-0.08623 -0.774722,0.193502 0.07086,0.199975 0.435587,0.431774 0.810619,0.515109 0.531603,0.118131 0.681862,0.323798 0.681862,0.93334 0,0.70378 -0.09922,0.789681 -0.993833,0.860559 -0.546603,0.04331 -1.084176,-0.0063 -1.194597,-0.110243 z m 3.64068,-0.01259 c -0.103048,-0.09701 -0.187389,-0.503812 -0.187389,-0.903994 0,-0.400182 -0.156973,-0.776859 -0.348834,-0.83706 -0.244905,-0.07684 -0.188823,-0.260091 0.188217,-0.614999 0.37704,-0.354908 0.571717,-0.4077 0.653348,-0.177176 0.06395,0.180602 0.295473,0.328367 0.514478,0.328367 0.219015,0 0.398202,0.119062 0.398202,0.264583 0,0.145521 -0.189726,0.264584 -0.421627,0.264584 -0.236406,0 -0.421617,0.236107 -0.421617,0.53747 0,0.295609 0.189726,0.606004 0.421617,0.689766 0.231901,0.08376 0.421627,0.258619 0.421627,0.388571 0,0.274182 -0.941204,0.320458 -1.218022,0.05989 z m 1.780189,-0.987779 c 0,-1.154087 0.0085,-1.164166 0.983783,-1.164166 1.070387,0 1.322845,0.33107 0.421617,0.552912 -0.409336,0.100762 -0.562156,0.360896 -0.562156,0.956901 0,0.551184 -0.137713,0.81852 -0.421627,0.81852 -0.310888,0 -0.421617,-0.305741 -0.421617,-1.164167 z m 2.35029,0.767292 c -0.249972,-0.613196 0.07915,-1.137739 0.794684,-1.266363 0.578177,-0.10394 0.56461,-0.120745 -0.12335,-0.152814 -1.129134,-0.05263 -0.94693,-0.565198 0.200924,-0.565198 1.071672,0 1.555829,0.529772 1.555829,1.702398 0,0.616486 -0.10411,0.678852 -1.133139,0.678852 -0.747952,0 -1.188149,-0.134913 -1.294948,-0.396875 z m 1.444304,-0.396875 c 0.09551,-0.145521 -0.02348,-0.264583 -0.264495,-0.264583 -0.241016,0 -0.43821,0.119062 -0.43821,0.264583 0,0.145521 0.119026,0.264583 0.264494,0.264583 0.145468,0 0.342663,-0.119062 0.438211,-0.264583 z m 1.733339,0.617361 c -0.384817,-0.362233 -0.165398,-0.540023 0.515316,-0.417535 0.917641,0.165123 0.904383,-0.140746 -0.0205,-0.471729 -1.008462,-0.360916 -0.8125,-1.183305 0.28197,-1.183305 0.448781,0 0.865352,0.139459 0.925715,0.30991 0.0698,0.197161 -0.100605,0.258128 -0.468467,0.167578 -0.328629,-0.08089 -0.578218,-0.0148 -0.578218,0.153111 0,0.162493 0.256941,0.295442 0.570984,0.295442 0.697393,0 1.065096,0.758496 0.524028,1.080985 -0.464834,0.277058 -1.485566,0.315268 -1.750868,0.06554 z m 2.810811,0 c -0.384817,-0.362233 -0.165388,-0.540023 0.515316,-0.417535 0.917641,0.165123 0.904383,-0.140746 -0.0205,-0.471729 -1.008462,-0.360916 -0.8125,-1.183305 0.28197,-1.183305 0.448792,0 0.865363,0.139459 0.925715,0.30991 0.0698,0.197161 -0.100605,0.258128 -0.468467,0.167578 -0.328629,-0.08089 -0.578208,-0.0148 -0.578208,0.153111 0,0.162493 0.256941,0.295442 0.570974,0.295442 0.697393,0 1.065096,0.758496 0.524038,1.080985 -0.464844,0.277058 -1.485576,0.315268 -1.750878,0.06554 z m 2.96073,-0.141111 c -0.433568,-0.40812 -0.433568,-1.33813 0,-1.74625 0.696023,-0.655168 2.192435,-0.203699 2.192435,0.661458 0,0.205787 -0.338742,0.343959 -0.843244,0.343959 -0.463792,0 -0.843244,0.133945 -0.843244,0.297656 0,0.189618 0.306064,0.240036 0.843244,0.138906 0.877038,-0.165113 1.175751,0.180465 0.398628,0.461172 -0.695376,0.251179 -1.379543,0.189761 -1.747819,-0.156901 z m 1.273063,-1.429853 c -0.09338,-0.08792 -0.335832,-0.09732 -0.538742,-0.02089 -0.224231,0.08446 -0.157621,0.147156 0.169818,0.159852 0.296312,0.01149 0.462326,-0.05104 0.368924,-0.138964 z m 3.449106,1.48277 c 0,-0.145521 0.126484,-0.264584 0.281077,-0.264584 0.154594,0 0.281078,-0.483276 0.281078,-1.073948 0,-0.730808 -0.101455,-1.014923 -0.317538,-0.889213 -0.192551,0.112014 -0.266874,0.04005 -0.188801,-0.182822 0.07086,-0.202157 0.40344,-0.405605 0.739176,-0.452106 0.558034,-0.07729 0.610408,0.03054 0.610408,1.256771 0,1.015894 0.102304,1.341318 0.421627,1.341318 0.231891,0 0.421617,0.119063 0.421617,0.264584 0,0.145521 -0.505947,0.264583 -1.124322,0.264583 -0.618376,0 -1.124322,-0.119062 -1.124322,-0.264583 z m 3.011521,0.100734 c -0.405373,-0.381576 -0.181238,-0.595977 0.572259,-0.547421 0.523221,0.03372 0.77298,-0.07842 0.77298,-0.347063 0,-0.24141 -0.247741,-0.388646 -0.63243,-0.375867 -0.533696,0.01773 -0.632442,-0.11653 -0.632442,-0.859896 0,-0.830359 0.05641,-0.880904 0.983784,-0.880904 0.541089,0 0.983794,0.119062 0.983794,0.264583 0,0.145521 -0.316221,0.264584 -0.702706,0.264584 -0.858531,0 -0.937358,0.4595 -0.09901,0.57691 0.839961,0.11763 1.309735,0.876331 0.912435,1.473611 -0.315487,0.474296 -1.798333,0.770675 -2.158695,0.431463 z M 4.3927519,5.98384 C 3.9560071,5.572729 4.2334942,5.37493 5.0352324,5.525866 6.0852854,5.72355 6.1870165,5.186628 5.1685686,4.822143 4.2956632,4.509744 4.0105378,3.894122 4.4879495,3.352632 4.9064324,2.877986 6.4791854,2.936599 6.6523918,3.433292 6.7353617,3.671123 6.5177914,3.714762 5.8634232,3.591569 5.1683242,3.460709 4.9896361,3.505339 5.0887007,3.785071 c 0.070859,0.199975 0.4355868,0.431774 0.8106194,0.515109 0.5316025,0.118131 0.681862,0.323798 0.681862,0.93334 0,0.703781 -0.099224,0.789681 -0.9938332,0.860559 C 5.040746,6.137389 4.5031731,6.087779 4.3927519,5.983836 Z M 8.0334322,5.97125 C 7.9303837,5.87424 7.8460434,5.46744 7.8460434,5.067257 c 0,-0.400182 -0.1569736,-0.776859 -0.348835,-0.83706 C 7.2523037,4.153357 7.3083854,3.970106 7.6854259,3.615199 8.0624663,3.260291 8.2571429,3.207498 8.3387743,3.438022 c 0.063954,0.180602 0.2954728,0.328367 0.5144773,0.328367 0.2190151,0 0.3982026,0.119063 0.3982026,0.264583 0,0.145521 -0.189726,0.264584 -0.4216275,0.264584 -0.2364059,0 -0.4216169,0.236108 -0.4216169,0.53747 0,0.295609 0.189726,0.606004 0.4216169,0.689766 0.2319015,0.08376 0.4216275,0.25862 0.4216275,0.388571 0,0.274182 -0.9412042,0.320458 -1.218022,0.05989 z M 10.150918,5.830139 c -0.433568,-0.40812 -0.433568,-1.33813 0,-1.74625 0.696013,-0.655168 2.192435,-0.203699 2.192435,0.661458 0,0.205788 -0.338742,0.343959 -0.843244,0.343959 -0.463792,0 -0.843244,0.133945 -0.843244,0.297656 0,0.189618 0.306064,0.240036 0.843244,0.138906 0.877038,-0.165112 1.175751,0.180465 0.398628,0.461172 -0.695376,0.251179 -1.379543,0.189761 -1.747819,-0.156901 z m 1.273063,-1.429852 c -0.09338,-0.08792 -0.335832,-0.09732 -0.538742,-0.02089 -0.224231,0.08446 -0.157622,0.147156 0.169818,0.159852 0.296312,0.01149 0.462326,-0.05105 0.368924,-0.138964 z m 1.762617,0.843359 c 0,-0.497196 -0.146595,-0.949987 -0.32575,-1.006203 -0.473832,-0.148671 0.612883,-1.264804 1.231461,-1.264804 0.274831,0 0.499689,0.119063 0.499689,0.264583 0,0.145521 -0.1581,0.266407 -0.351353,0.268635 -0.238201,0.0027 -0.215573,0.09444 0.07022,0.284727 0.317293,0.211219 0.334684,0.313883 0.07022,0.414872 -0.193243,0.07381 -0.351343,0.540994 -0.351343,1.03819 0,0.627161 -0.129118,0.903993 -0.421627,0.903993 -0.292509,0 -0.421617,-0.276832 -0.421617,-0.903993 z m 1.788135,0.507118 c -0.249983,-0.613196 0.07914,-1.137739 0.794673,-1.266363 0.578187,-0.103939 0.564621,-0.120745 -0.12335,-0.152814 -1.129135,-0.05263 -0.94692,-0.565198 0.200923,-0.565198 1.071672,0 1.555841,0.529772 1.555841,1.702398 0,0.616486 -0.104111,0.678852 -1.133151,0.678852 -0.747951,0 -1.188149,-0.134913 -1.294936,-0.396875 z m 1.444293,-0.396875 c 0.09551,-0.145521 -0.02348,-0.264583 -0.264484,-0.264583 -0.241017,0 -0.438211,0.119062 -0.438211,0.264583 0,0.145521 0.119015,0.264583 0.264484,0.264583 0.145479,0 0.342673,-0.119062 0.438211,-0.264583 z M 17.964975,4.973008 V 3.798376 l 1.194597,0.05015 1.194597,0.05015 0.08648,1.124479 c 0.06735,0.876422 -0.01062,1.124479 -0.351353,1.124479 -0.314871,0 -0.437785,-0.266176 -0.437785,-0.94809 0,-1.195468 -0.663526,-1.10437 -0.790775,0.10857 -0.14322,1.364986 -0.895718,1.083454 -0.895718,-0.335111 z m 4.778389,-0.412869 c 0,-1.411111 0.06247,-1.5875 0.562166,-1.5875 0.335704,0 0.562156,0.176389 0.562156,0.437882 0,0.407454 0.0357,0.407454 0.514031,0 0.282714,-0.240835 0.754166,-0.437882 1.047663,-0.437882 0.470602,0 0.445392,0.08307 -0.213417,0.70321 l -0.747059,0.703211 0.716538,0.884289 c 0.819766,1.011682 0.365375,1.222123 -0.667202,0.309003 L 23.867686,4.997063 V 5.57235 c 0,0.398898 -0.172357,0.575287 -0.562156,0.575287 -0.4997,0 -0.562166,-0.176389 -0.562166,-1.5875 z m 3.710275,1.27 c -0.433569,-0.40812 -0.433569,-1.33813 0,-1.74625 0.433568,-0.40812 1.421569,-0.40812 1.855137,0 0.788438,0.742156 0.194433,2.06375 -0.927574,2.06375 -0.324645,0 -0.742055,-0.142875 -0.927563,-0.3175 z M 27.80283,4.957014 c 0,-0.411574 -0.159279,-0.661458 -0.421628,-0.661458 -0.262338,0 -0.421617,0.249884 -0.421617,0.661458 0,0.411574 0.159279,0.661458 0.421617,0.661458 0.262349,0 0.421628,-0.249884 0.421628,-0.661458 z m 1.405411,0.02469 V 3.815773 l 1.897291,0.04145 1.897303,0.04145 0.08648,1.124479 c 0.100286,1.304068 -0.42848,1.55364 -0.56051,0.264583 -0.04844,-0.472941 -0.214574,-0.859895 -0.369168,-0.859895 -0.154594,0 -0.320714,0.386954 -0.369158,0.859896 -0.126356,1.23354 -0.895703,1.157786 -0.895703,-0.08819 0,-1.195468 -0.663526,-1.10437 -0.790786,0.10857 -0.142621,1.359399 -0.895703,1.084963 -0.895703,-0.32641 z m 4.778377,-0.45276 c 0,-1.206997 0.09466,-1.556309 0.421628,-1.556309 0.23189,0 0.421616,0.221614 0.421616,0.492476 0,0.38109 0.157091,0.464211 0.694515,0.367505 0.536447,-0.09653 0.766936,0.02464 1.012701,0.532389 0.515593,1.065174 -0.04982,1.752736 -1.426584,1.73485 l -1.123876,-0.0146 z m 1.873176,0.674864 c 0.234271,-0.574665 -0.360467,-1.11509 -0.786164,-0.714375 -0.359798,0.338676 -0.136905,1.129035 0.318399,1.129035 0.164293,0 0.374799,-0.186596 0.467765,-0.41466 z m 1.218724,-0.22034 c 0,-1.154087 0.0085,-1.164166 0.983783,-1.164166 1.070386,0 1.322845,0.331071 0.421627,0.552913 -0.409346,0.100761 -0.562166,0.360895 -0.562166,0.9569 0,0.551185 -0.137702,0.81852 -0.421628,0.81852 -0.310887,0 -0.421616,-0.305741 -0.421616,-1.164167 z m 2.248655,-0.02646 c 0,-0.881944 0.109306,-1.190625 0.421617,-1.190625 0.312311,0 0.421627,0.308681 0.421627,1.190625 0,0.881944 -0.109316,1.190625 -0.421627,1.190625 -0.312311,0 -0.421617,-0.308681 -0.421617,-1.190625 z m 1.4054,0.01599 V 3.798367 l 1.194597,0.05015 1.194597,0.05015 0.08648,1.124479 c 0.06735,0.876422 -0.01062,1.124479 -0.351353,1.124479 -0.314871,0 -0.437786,-0.266176 -0.437786,-0.94809 0,-1.195468 -0.663526,-1.10437 -0.790774,0.10857 -0.143217,1.364986 -0.895715,1.083454 -0.895715,-0.335111 z m 3.091899,-0.412869 c 0,-1.234722 0.0937,-1.5875 0.421617,-1.5875 0.285689,0 0.421628,0.26914 0.421628,0.834757 0,0.79194 0.02635,0.812297 0.51402,0.396875 0.763494,-0.650393 1.388382,-0.571836 0.748185,0.09406 -0.496513,0.516439 -0.492263,0.551132 0.145968,1.190625 0.592008,0.593176 0.605797,0.658686 0.138637,0.658686 -0.285317,0 -0.750076,-0.197047 -1.03279,-0.437882 -0.478304,-0.407454 -0.51402,-0.407454 -0.51402,0 0,0.240835 -0.189726,0.437882 -0.421628,0.437882 -0.327927,0 -0.421617,-0.352778 -0.421617,-1.5875 z M 39.327173,3.237212 c 0,-0.14552 0.189726,-0.264583 0.421617,-0.264583 0.231891,0 0.421627,0.119063 0.421627,0.264583 0,0.145521 -0.189736,0.264584 -0.421627,0.264584 -0.231891,0 -0.421617,-0.119063 -0.421617,-0.264584 z"
       style="fill:#000000;stroke-width:0.27270767" />
  </g>
</svg>
