<?xml version="1.0" encoding="UTF-8" standalone="no"?>
<svg
   xmlns:dc="http://purl.org/dc/elements/1.1/"
   xmlns:cc="http://creativecommons.org/ns#"
   xmlns:rdf="http://www.w3.org/1999/02/22-rdf-syntax-ns#"
   xmlns:svg="http://www.w3.org/2000/svg"
   xmlns="http://www.w3.org/2000/svg"
   viewBox="0 0 53.333332 53.333332"
   height="53.333332"
   width="53.333332"
   id="svg912"
   version="1.1">
  <metadata
     id="metadata918">
    <rdf:RDF>
      <cc:Work
         rdf:about="">
        <dc:format>image/svg+xml</dc:format>
        <dc:type
           rdf:resource="http://purl.org/dc/dcmitype/StillImage" />
        <dc:title></dc:title>
      </cc:Work>
    </rdf:RDF>
  </metadata>
  <defs
     id="defs916" />
  <path
     id="path922"
     d="M 0.64000024,43.230454 C 0.28800024,42.842912 2.3804476e-7,41.311718 2.3804476e-7,39.827803 2.3804476e-7,37.415184 0.27447824,36.802783 2.5946763,34.038691 c 1.427073,-1.700096 3.498705,-4.792987 4.603629,-6.873089 1.104924,-2.080105 2.087202,-3.782007 2.182841,-3.782007 0.09564,0 0.7506237,1.380179 1.7963287,2.628352 l 1.734131,2.069893 2.598298,0.195202 c 2.395481,0.179965 3.156762,-0.1792 3.156762,0.391061 0,0.987955 -1.97121,8.270008 -3.298208,12.18425 l -1.045097,3.082723 H 7.8016803 c -4.361307,0 -6.733687,-0.233413 -7.16168006,-0.704622 z M 17.59703,41.145947 c 0.52867,-1.534022 1.500467,-4.957815 2.159548,-7.60843 1.132062,-4.552789 1.260408,-4.784313 2.320876,-4.186634 0.6174,0.347965 1.686484,1.354749 2.836473,2.083162 l 2.049006,0.668647 2.154245,-1.074262 c 3.450266,-1.720551 2.957323,-2.666906 3.683312,1.162942 0.214267,1.130331 1.183005,4.235073 2.152751,6.899426 l 1.763176,4.844278 H 26.676114 16.635812 Z m 20.015687,-1.467963 c -1.501139,-3.581026 -3.909134,-10.03738 -2.697535,-11.014732 1.228621,-0.991085 2.239581,-0.927173 4.582265,-0.796347 0,0 0.587847,-0.124547 1.831878,-1.50491 l 2.788179,-3.093733 2.257443,4.60835 c 1.241593,2.534594 3.315154,5.971664 4.607914,7.637929 1.775173,2.288064 2.350471,3.516857 2.350471,5.020435 0,3.135132 -0.592892,3.4001 -7.608036,3.4001 H 39.39726 Z m 13.893491,-7.186168 c -0.858251,-1.239924 -2.494421,-4.241487 -3.635932,-6.670138 l -2.075475,-4.415732 2.018659,-1.341327 c 2.02779,-1.347396 4.851703,-2.309871 5.30687,-1.808746 0.134232,0.147786 0.17707,3.918572 0.0952,8.379527 l -0.148862,8.110823 z M 0.02220124,25.879131 c -0.01669,-5.848691 0.143305,-7.778781 0.644465,-7.774467 1.54525806,0.0133 6.26666706,2.920936 6.26666706,3.859274 0,1.382851 -2.776877,6.566245 -5.009869,9.351558 L 0.04440124,33.659335 Z M 23.001552,27.349325 C 22.012406,26.677419 19.82498,25.972668 18.140605,25.783212 l -3.062499,-0.344471 3.440793,-7.193018 3.440792,-7.193018 h 3.153488 c 3.541594,0 3.544801,0.006 2.350496,4.340234 -0.435294,1.57975 -1.064095,5.212959 -1.397335,8.073797 -0.333239,2.86084 -0.754492,5.179632 -0.936116,5.152879 -0.181623,-0.02675 -1.139526,-0.598388 -2.128672,-1.27029 z m 5.041804,-2.321109 c 0.20302,-2.034875 0.876319,-5.945755 1.496219,-8.690846 l 1.127091,-5.326152 2.8,0.157595 c 1.54,-0.09761 2.8,-0.230486 2.8,-0.02203 0,0.517261 2.119391,12.313487 2.415146,13.41118 0.193194,0.717041 -0.390808,0.882621 -3.141469,0.890688 -2.794058,0.0082 -3.767061,0.29281 -5.622447,1.644622 l -2.243668,1.634714 z M 11.581555,22.61646 C 9.7957603,20.038754 5.7582223,17.198269 2.5333333,16.250859 0.33636424,15.605432 2.3804476e-7,15.304488 2.3804476e-7,13.98428 2.3804476e-7,11.236955 0.64358924,11.052704 10.24,11.052704 c 4.928,0 8.954332,-0.248597 8.947404,-0.0064 -0.0069,0.242214 -1.408682,3.741757 -3.115009,7.23071 l -3.102414,6.343549 z m 28.195398,-4.097971 c -0.523761,-2.975851 -1.064014,-6.319816 -1.200563,-6.884982 -0.227007,-0.939565 0.339496,-0.580802 6.614335,-0.580802 7.395654,0 8.142607,0.273047 8.142607,2.976534 0,1.331784 -0.276396,1.616671 -1.839418,1.895925 -2.993258,0.534784 -5.736544,2.253611 -8.329292,5.218773 l -2.435378,2.785188 z"
     style="fill:#000000;stroke-width:0.55961186" />
</svg>
